<?xml version="1.0" encoding="utf-8"?>
<!-- Generator: Adobe Illustrator 19.0.0, SVG Export Plug-In . SVG Version: 6.00 Build 0)  -->
<svg version="1.1" id="Layer_1" xmlns="http://www.w3.org/2000/svg" xmlns:xlink="http://www.w3.org/1999/xlink" x="0px" y="0px"
	 viewBox="-633 394 13 13" style="enable-background:new -633 394 13 13;" xml:space="preserve">
<style type="text/css">
	.st0{fill:#efefd7;}
</style>
<path id="XMLID_2_" class="st0" d="M-626.5,397.2c-1.8,0-3.3,1.5-3.3,3.3s1.5,3.3,3.3,3.3s3.3-1.5,3.3-3.3S-624.7,397.2-626.5,397.2
	z M-626.5,402.7c-1.2,0-2.2-1-2.2-2.2s1-2.2,2.2-2.2s2.2,1,2.2,2.2S-625.3,402.7-626.5,402.7L-626.5,402.7z M-622.3,397
	c0,0.4-0.3,0.8-0.8,0.8c-0.4,0-0.7-0.3-0.7-0.8s0.3-0.7,0.8-0.7C-622.6,396.3-622.3,396.6-622.3,397z M-620,397.8c0-1-0.3-2-1.1-2.7
	c-0.8-0.8-1.7-1-2.7-1.1c-1.1,0-4.3,0-5.4,0c-1,0-2,0.3-2.7,1s-1,1.8-1.1,2.8c0,1.1,0,4.3,0,5.4c0,1,0.3,2,1.1,2.7
	c0.8,0.8,1.7,1,2.7,1.1c1.1,0,4.3,0,5.4,0c1,0,2-0.3,2.7-1.1c0.8-0.8,1-1.7,1.1-2.7C-620,402.1-620,398.9-620,397.8L-620,397.8z
	 M-621.4,404.3c-0.2,0.6-0.7,1-1.2,1.2c-0.9,0.3-2.9,0.3-3.8,0.3s-3,0.1-3.8-0.3c-0.6-0.2-1-0.7-1.2-1.2c-0.5-0.8-0.4-2.9-0.4-3.8
	s-0.1-3,0.3-3.8c0.2-0.6,0.7-1,1.2-1.2c0.9-0.3,2.9-0.3,3.8-0.3s3-0.1,3.8,0.3c0.6,0.2,1,0.7,1.2,1.2c0.3,0.9,0.3,2.9,0.3,3.8
	S-621.1,403.5-621.4,404.3z"/>
</svg>
