<?xml version="1.0" encoding="UTF-8"?>
<svg id="Layer_1" xmlns="http://www.w3.org/2000/svg" version="1.1" viewBox="0 0 28 7.3">
  <!-- Generator: Adobe Illustrator 29.0.1, SVG Export Plug-In . SVG Version: 2.1.0 Build 192)  -->
  <defs>
    <style>
      .st0 {
        fill: #fcc013;
      }
    </style>
  </defs>
  <path class="st0" d="M28,3.4v.4c0,.1-.2.3-.3.4-.6.7-2.1,2.2-2.8,2.8s-.8.3-1.1-.1,0-.6.2-.9c.5-.6,1.2-1.1,1.7-1.7H.7c-.3,0-.6-.3-.7-.5v-.3c0-.3.4-.5.7-.5h25c-.5-.6-1.2-1.1-1.7-1.7-.7-.8.2-1.6.9-1.1.9,1,2,1.9,2.8,2.8s.2.3.3.4Z"/>
</svg>