<?xml version="1.0" encoding="UTF-8"?>
<svg id="Layer_1" xmlns="http://www.w3.org/2000/svg" version="1.1" viewBox="0 0 154.8 160">
  <!-- Generator: Adobe Illustrator 29.0.1, SVG Export Plug-In . SVG Version: 2.1.0 Build 192)  -->
  <defs>
    <style>
      .st0 {
        fill: #2b4e47;
      }

      .st1 {
        fill: #efefd7;
      }

      .st2 {
        fill: #fcc013;
      }
    </style>
  </defs>
  <path class="st1" d="M77.5,0c45.3-.2,74.2,48.7,52,88.4-21.7,38.9-77.8,40.6-101.8,3C2.5,52,30.8.2,77.5,0ZM75.8,4.5c-4.2.5-8.2,4-9.4,8.1-2.9,10.1,8,18.6,17.1,13.1s4.9-22.6-7.7-21.2ZM78.6,32.2c-.1-.1-.6-.5-.7-.4l-10.9,24.1,6.5-2.9v.3c0,0-9.1,21.3-9.1,21.3h57c-7.1-7-14.1-14-21.2-21l11.3-10.5,1.3,6.7c-.8,0-1.9-.9-2.6-.5l-3.8,4.8v.4c0,0,18,19.8,18,19.8l.6.2h8.6c1-2.8,1.3-5.6,1.7-8.4.7-6,.6-11.3-.5-17.3-.6-3.4-1.6-6.8-2.9-10-3.8-1.1-7.7-1.9-11.6-2.7-13.6-2.6-27.6-3.9-41.5-4ZM61.7,47.4c5.2-5,10.5-10,15.6-15.2-13-.2-26,.7-38.9,2.7-4.7.7-9.5,1.6-14.1,2.6-4,9.7-5.4,20.5-3.6,30.9l31.5-30.4-5.1,12.9-2.2-.9-22.9,23.9v.7h11.9c9.2-9.1,18.5-18.2,27.9-27.2ZM46.7,74.6h8.5l10.8-21.6-19.3,21.6ZM108.6,82.3c7.3,0,14.7,0,22,0l2.4-6H22.3l2.4,6c7.3,0,14.7,0,22,0l.6,2.4c-7,0-14.1,0-21.1,0-.3,0-.4,0-.3.3.2.7,1.8,3.3,2.3,4.1s.9,1.5,1.2,1.6c6.8,0,13.5,0,20.3,0l1.3,2.4c-6.7,0-13.4,0-20.1,0,1,1.5,2.2,3.2,3.5,4.5s1,1.2,1.7,1.3c6.7,0,13.5,0,20.2,0l2.6,2.4c-6.8,0-13.6,0-20.4,0,0,.3.1.4.3.6,2,2,4.4,3.6,6.7,5.3,21.3.3,42.7,0,64,.1.9-.2,6.3-4.5,7.1-5.4s.3-.3.3-.6c-6.8,0-13.6,0-20.4,0l2.8-2.4c6.7,0,13.3,0,20,0,.6,0,1.2-.8,1.7-1.3,1.3-1.3,2.4-3,3.5-4.5-6.7,0-13.4,0-20.1,0l1.3-2.4c6.8,0,13.5,0,20.3,0,.3-.1,1-1.2,1.2-1.6.5-.8,2.1-3.3,2.3-4.1s0-.3-.3-.3c-7,0-14.1,0-21.1,0l.6-2.4ZM105.6,109.8h-55.9c1.2.9,2.8,1.7,4.2,2.3,15,6.8,32.6,6.8,47.6,0,1.3-.6,2.9-1.4,4.1-2.2Z"/>
  <rect class="st1" x="0" y="144.3" width="154.7" height="2.2"/>
  <path class="st1" d="M25.2,127.8v1.7s-1.7,0-1.7,0v4.5l4.1-4.4c-.2-.2-1.2,0-1.3,0s0-1.4,0-1.7h5.3c0,.3,0,1.6,0,1.7s-.9,0-1.2,0c-.8.1-3.5,3.8-4.2,4.6l4,5.3c.7,0,2.8.3,3.1-.3l3.4-9.5c0-.6-1.2-.2-1.5-.3v-1.5h6.8v1.5s-1.5,0-1.5,0l3.5,10c.2.3,1.4,0,1.5.1s0,1.4,0,1.7h-5.3v-1.7s1.7,0,1.7,0l-1.1-3h-4.7s-1,3-1,3h1.7s0,1.7,0,1.7h-10.7c0-.3,0-1.6,0-1.7.1-.1,1.5.3,1.3-.3l-3.9-5v5.2c.3,0,1.4,0,1.5,0s0,1.4,0,1.7h-5.3v-1.7s1.7,0,1.7,0v-9.9h-1.7s0-1.7,0-1.7h5.4ZM40.3,134.9l-1.7-5.6c-.3,0-.3.3-.4.5-.7,1.6-1,3.5-1.7,5.2h3.8Z"/>
  <path class="st1" d="M101.8,127.8c4.2.5,4.6,5.7.7,6.8,0,.3,2,4.4,2.2,4.7s2.9.3,3.2-.2l3.4-9.5c0-.6-1.3-.1-1.5-.3v-1.5h6.8v1.5s-1.5,0-1.5,0l3.5,10c.2.3,1.4,0,1.5.1s0,1.4,0,1.7h-5.3v-1.7s1.7,0,1.7,0l-.9-2.9c-.1-.2-4.5-.2-4.8,0-.4.4-.6,2.2-1,2.8h1.7s0,1.7,0,1.7h-8.1l-2.9-6c-.4-.4-1.2-.1-1.8-.2v4.5h1.7s0,1.7,0,1.7h-5.6v-1.7s1.9,0,1.9,0v-9.9h-1.9s0-1.7,0-1.7c2.2.2,4.9-.3,7,0ZM115,134.9l-1.7-5.6c-.3,0-.3.3-.4.5-.7,1.6-1,3.5-1.7,5.2h3.8ZM98.5,133.3h3.1c1.8,0,1.8-3.7,0-3.7h-3.1v3.7Z"/>
  <path class="st1" d="M5.1,127.8c0,.3,0,1.6,0,1.7s-1.2,0-1.5,0v3.7h5.6v-3.7c-.3,0-1.4,0-1.5,0s0-1.4,0-1.7h5.1c0,.3,0,1.6,0,1.7s-1.2,0-1.5,0v9.9c.3,0,1.4,0,1.5,0s0,1.4,0,1.7h-5.1c0-.3,0-1.6,0-1.7s1.2,0,1.5,0v-4.5H3.6v4.5c.3,0,1.4,0,1.5,0s0,1.4,0,1.7H0c0-.3,0-1.6,0-1.7s1.2,0,1.5,0v-9.9c-.3,0-1.4,0-1.5,0s0-1.4,0-1.7h5.1Z"/>
  <path class="st1" d="M144.1,127.8v4.1c-2.2.3-1.6-.7-1.7-2.4h-5.4v3.9h4.9v1.7h-4.9v4.3h5.4c0-1.7-.6-2.8,1.7-2.4v4.1h-10.8c-.4,0-.3-1.4-.3-1.7h1.9s0-9.9,0-9.9h-1.9c0-.3-.1-1.7.3-1.7h10.8Z"/>
  <path class="st1" d="M61.2,127.8v1.7c-.3,0-1.6,0-1.7,0-.2.2,0,5.7,0,6.5s.1,1.9.2,2.4c.3,1.5,3.7,1.7,4.6.6.2-.2.6-1.2.6-1.3v-8.2c-.3,0-1.4,0-1.5,0s0-1.4,0-1.7h5.3v1.7s-1.7,0-1.7,0v8.5c0,.1-.4,1.1-.5,1.2-1.2,2.2-4.5,2.5-6.6,1.7s-2.4-2.5-2.5-4.6c0-1,.3-6.6,0-6.9s-1.4,0-1.5,0,0-1.4,0-1.7h5.3Z"/>
  <path class="st1" d="M69.4,136.3c2.6-.3,1.4.5,2.1,1.8,1.2,2.3,5.7,2.1,5-1.1-.4-2.1-6.1-1.2-7-4.6-1-4.1,3.8-5.9,6.8-3.7-.3-1.2.8-.6,1.7-.7v3.9c-.3,0-1.6,0-1.7,0s.2-1-1-1.8c-3-2-5.9,1.4-2.7,2.7s5.2.7,5.8,3.7c.9,4.3-4.2,6.4-7.2,3.8.3,1.5-.8.8-1.9.9v-4.9Z"/>
  <path class="st1" d="M46,136.3c.3,0,1.6,0,1.7,0,0,.1-.3,1.5.9,2.5,1.8,1.5,4.7.9,4.3-1.9s-.8-1-1.5-1.3c-1.8-.7-4.4-.7-5.3-2.8-1.7-4.2,3.4-6.7,6.6-4.2-.3-1.2.8-.6,1.7-.7v3.9c-.3,0-1.6,0-1.7,0s0-.8-.4-1.4c-2-2.6-6.4.2-4,1.9s6,.6,6.6,4.1c.8,4.5-4,6.4-7.2,3.8,0,1.4-.6.8-1.8.9v-4.9Z"/>
  <path class="st1" d="M124,127.8c0,.3,0,1.6,0,1.7-.2.2-1.6-.3-1.5.3l3.3,8.6,3.3-8.7c-.2-.2-1.4,0-1.5,0s0-1.4,0-1.7h5.1v1.7s-1.7,0-1.7,0l-4.2,11.6c-.3.4-1.2.1-1.7.2l-4.6-11.5c-.2-.6-1.5-.2-1.7-.3s0-1.4,0-1.7h5.3Z"/>
  <polygon class="st1" points="94.4 127.8 94.4 132.9 92.7 132.9 92.7 129.5 89.9 129.5 89.9 139.4 91.7 139.4 91.7 141.1 86.1 141.1 86.1 139.4 87.8 139.4 87.8 129.5 85.2 129.5 85.2 132.9 83.5 132.9 83.5 127.8 94.4 127.8"/>
  <path class="st1" d="M150.4,127.8c0,.3,0,1.6,0,1.7s-1.2,0-1.5,0v9.9h3.9v-4.5h1.9v6.2h-9.8v-1.7s1.7,0,1.7,0v-9.9h-1.7s0-1.7,0-1.7h5.4Z"/>
  <path class="st1" d="M61.7,150.9c-.2-.2-1,.6-.8-1.1h2.4s1.7,5.6,1.7,5.6l-.2-4.4c-.9-.1-.5-.4-.6-1.2h2.6c0,.3.1,1,0,1.1s-.7,0-.7.3v8.7h-1.1c0-.1-2-6.7-2-6.7v5.4c.8-.3,1,.6.7,1.1s-2.3.3-2.6,0c-.4-.3-.4-1.7.6-1.2-.2-1,.3-7.4,0-7.7Z"/>
  <path class="st1" d="M18.8,127.8c0,1.5.5,1.9-1.3,1.7v9.9c1.8-.2,1.3.2,1.3,1.7h-4.9c0-.3,0-1.6,0-1.7s1.2,0,1.5,0v-9.9c-.3,0-1.4,0-1.5,0s0-1.4,0-1.7h4.9Z"/>
  <path class="st1" d="M77.9,149.8v2.7c0,.3-1,.3-1.3.3v-1.9s-1.1,0-1.1,0v3c0,0,.9-.1.9.1.2,1,.1,1.4-.9,1.2v3.4h1.1s0-1.9,0-1.9h1.3v2.9s-.3.3-.3.3h-4.4c0-.9-.4-1.5.8-1.3v-7.4c0-.2-.7-.2-.7-.3-.1-.1,0-.8,0-1.1h4.7Z"/>
  <path class="st1" d="M56.3,149.8v3h-1.3c.1-.7,0-2.5-.9-1.8-1,.7,1.7,3.6,2,4.4.6,1.2,1,2.7.2,3.9-.8,1.3-2.4.4-3.7.7v-3.6h1.3c0,.4,0,2,.2,2.2.8.5,1.1-.3,1.1-1,0-2.4-3.9-3.8-2.4-7.1s2.2-.4,3.5-.7Z"/>
  <path class="st1" d="M89.8,149.6c1.3-.3,1.9.5,2.2,1.6s.6,7.3-.7,8.3c-.5.4-1.4.5-2,.1-1.6-1.1-1.5-8.5-.2-9.7s.3-.3.6-.3ZM89.9,158.7c.8.6,1.1-.9,1.1-1.4.1-1.3.1-5-.2-6.2-.3-1-1-.3-1.1.5s0,6.8.2,7Z"/>
  <path class="st1" d="M72.2,149.8v3.2c-1.9.1-1.1,0-1.4-1.3-.1-.5-.7-1.2-1.1-.6s-.4,6.6,0,7.2c1.1,1.4,1.1-2,1.3-2.1s.8.1.9.2c.8.6-.4,4.8-2.9,3.3s-1.8-7.8-.5-9.4c1.1-1.4,2.1,0,3.6-.5Z"/>
  <path class="st1" d="M83.1,159.9c0-1.1,0-2.1.4-3.1.5-1.2,2-2.5,2.2-3.6.5-3.2-1.7-3.5-1.3-.3h-1.3c-.2-1.6.2-3.5,2.2-3.4s2.3,2.9,1.6,4.5-2.6,2.6-2.5,4.6h1.5s0-1.9,0-1.9h1.3v3.2h-4.1Z"/>
  <path class="st1" d="M93.3,159.9c-.6-.2,0-2.2,0-2.7.6-1.9,2.4-2.8,2.4-4.9,0-2.8-2-1.5-1.5.7-1.5.2-1.5-.5-1.2-1.7.5-2.5,3.8-2.2,4,.3.4,3.4-2.5,3.9-2.8,7h1.7s0-1.9,0-1.9h1.1v3.2c-1-.2-3,.3-3.8,0Z"/>
  <path class="st1" d="M101.7,149.6v6.2c0,0,1.1-.1.8,1.1-.2,0-.7,0-.8,0s0,1.4,0,1.6c0,.3.7-.3.6.8,0,.9-1.2.8-2,.7s-.6-1.1-.4-1.3.5,0,.6-.1c0-.4,0-1.1,0-1.6-.2-.2-2.2.6-2.4-1s2.3-4.9,2.4-6.3h1.3ZM100.6,155.8v-3.6c-.8,1-1,2.4-1.5,3.6h1.5Z"/>
  <path class="st1" d="M60.6,149.8c.4,1.6-.9,1.2-.9,1.3v7.5h.9c0,.3,0,1.3-.3,1.3h-2.9c0-.9-.4-1.5.8-1.3v-7.5c0,0-1.2,0-.8-1.3h3.2Z"/>
  <path class="st0" d="M78.6,32.2c3,2.5,6.2,6.4,9.1,9.2,4.1,4.1,8.3,8.1,12.5,12.2,7.1,7,14.1,14,21.2,21h-57l9.2-21.3v-.3c0,0-6.6,2.9-6.6,2.9l10.9-24.1c.2-.1.6.3.7.4Z"/>
  <path class="st2" d="M135.1,66.1l-23.6-23.1-11.3,10.5c-4.1-4.1-8.3-8.1-12.5-12.2s-6.1-6.7-9.1-9.2c13.9.1,27.8,1.4,41.5,4,3.9.7,7.8,1.5,11.6,2.7,1.4,3.2,2.3,6.6,2.9,10,1.1,6,1.2,11.2.5,17.3Z"/>
  <path class="st2" d="M52.2,38l-31.5,30.4c-1.8-10.4-.4-21.2,3.6-30.9,4.7-1,9.4-1.9,14.1-2.6,12.8-2,25.9-2.8,38.9-2.7-5,5.2-10.4,10.1-15.6,15.2l-9.6-9.4Z"/>
  <path class="st0" d="M46.7,82.3c-7.3,0-14.7,0-22,0l-2.4-6h110.7l-2.4,6c-7.3,0-14.7,0-22,0-20.6,0-41.3,0-61.9,0Z"/>
  <path class="st0" d="M47.3,84.7c20.3,0,40.5,0,60.8,0,7,0,14.1,0,21.1,0,.3,0,.4,0,.3.3-.2.8-1.8,3.3-2.3,4.1s-.9,1.5-1.2,1.6c-6.8,0-13.5,0-20.3,0-18.6-.1-37.3-.1-55.9,0-6.8,0-13.5,0-20.3,0-.3-.1-1-1.2-1.2-1.6-.5-.8-2.1-3.4-2.3-4.1s0-.3.3-.3c7,0,14.1,0,21.1,0Z"/>
  <path class="st0" d="M51,93.1c17.8,0,35.5,0,53.3,0,6.7,0,13.4,0,20.1,0-1,1.5-2.2,3.2-3.5,4.5-.5.5-1,1.2-1.7,1.3-6.7,0-13.3,0-20,0-14.3,0-28.6,0-43,0-6.7,0-13.4,0-20.2,0-.6,0-1.2-.8-1.7-1.3-1.3-1.3-2.4-3-3.5-4.5,6.7,0,13.4,0,20.1,0Z"/>
  <path class="st0" d="M58.9,101.4c12.5,0,25,0,37.5,0,6.8,0,13.6,0,20.4,0,0,.3-.1.4-.3.6-.8.9-6.2,5.3-7.1,5.4-21.3,0-42.7.2-64-.1-2.3-1.7-4.7-3.3-6.7-5.3s-.4-.2-.3-.6c6.8,0,13.6,0,20.4,0Z"/>
  <path class="st0" d="M61.7,47.4c-9.3,9-18.6,18.1-27.9,27.2h-11.9v-.7s22.9-23.9,22.9-23.9l2.2.9,5.1-12.9,9.6,9.4Z"/>
  <path class="st2" d="M75.8,4.5c12.6-1.4,18.1,14.8,7.7,21.2s-20-3-17.1-13.1c1.2-4,5.2-7.6,9.4-8.1Z"/>
  <path class="st0" d="M135.1,66.1c-.3,2.8-.7,5.7-1.7,8.4h-8.6c0,0-.6,0-.6,0l-18.1-19.8v-.4c0,0,3.9-4.8,3.9-4.8.8-.4,1.8.5,2.6.5l-1.3-6.7,23.6,23.1Z"/>
  <path class="st0" d="M105.6,109.8c-1.2.9-2.7,1.6-4.1,2.2-15,6.8-32.6,6.8-47.6,0-1.4-.6-3-1.4-4.2-2.3h55.9Z"/>
  <path class="st2" d="M108.6,82.3l-.6,2.4c-20.3,0-40.5,0-60.8,0l-.6-2.4c20.6,0,41.3,0,61.9,0Z"/>
  <path class="st2" d="M105.6,90.7l-1.3,2.4c-17.8,0-35.5,0-53.3,0l-1.3-2.4c18.6-.1,37.3-.1,55.9,0Z"/>
  <path class="st2" d="M99.2,99l-2.8,2.4c-12.5,0-25,0-37.5,0l-2.6-2.4c14.3,0,28.6,0,43,0Z"/>
  <polygon class="st0" points="46.7 74.6 66 53 55.3 74.6 46.7 74.6"/>
</svg>