<?xml version="1.0" encoding="UTF-8"?>
<svg id="Layer_1" xmlns="http://www.w3.org/2000/svg" version="1.1" viewBox="0 0 30 35.8">
  <!-- Generator: Adobe Illustrator 29.0.1, SVG Export Plug-In . SVG Version: 2.1.0 Build 192)  -->
  <defs>
    <style>
      .st0 {
        fill: #e8112d;
      }

      .st1 {
        fill: #fff;
      }
    </style>
  </defs>
  <path class="st0" d="M1.2,1.4v33.9c0,.4-.1.5-.5.4h-.2c-.4,0-.5,0-.5-.4V.5C0,.1.1,0,.5,0h.3C1.1,0,1.2.1,1.2.4v1Z"/>
  <g>
    <rect class="st1" x="1.2" width="28.7" height="20.7"/>
    <g>
      <path class="st0" d="M17.5,0h-4v8.4H1.2v4h12.4v8.4h4v-8.4h12.4v-4h-12.4V0Z"/>
      <path class="st0" d="M24.3,3.7c0-.5,0-1,.2-1.5-.5,0-.9,0-1.4,0,0,.5.2,1,.2,1.5-.5,0-1,0-1.5-.2,0,.5,0,.9,0,1.4.5,0,1-.2,1.5-.2,0,.5,0,1-.2,1.5.5,0,.9,0,1.4,0,0-.5-.2-1-.2-1.5.5,0,1,0,1.5.2,0-.5,0-.9,0-1.4-.5,0-1,.2-1.5.2Z"/>
      <path class="st0" d="M7.9,3.7c0-.5,0-1,.2-1.5-.5,0-.9,0-1.4,0,0,.5.2,1,.2,1.5-.5,0-1,0-1.5-.2,0,.5,0,.9,0,1.4.5,0,1-.2,1.5-.2,0,.5,0,1-.2,1.5.5,0,.9,0,1.4,0,0-.5-.2-1-.2-1.5.5,0,1,0,1.5.2,0-.5,0-.9,0-1.4-.5,0-1,.2-1.5.2Z"/>
      <path class="st0" d="M24.3,17.1c0,.5,0,1,.2,1.5-.5,0-.9,0-1.4,0,0-.5.2-1,.2-1.5-.5,0-1,0-1.5.2,0-.5,0-.9,0-1.4.5,0,1,.2,1.5.2,0-.5,0-1-.2-1.5.5,0,.9,0,1.4,0,0,.5-.2,1-.2,1.5.5,0,1,0,1.5-.2,0,.5,0,.9,0,1.4-.5,0-1-.2-1.5-.2Z"/>
      <path class="st0" d="M7.9,17.1c0,.5,0,1,.2,1.5-.5,0-.9,0-1.4,0,0-.5.2-1,.2-1.5-.5,0-1,0-1.5.2,0-.5,0-.9,0-1.4.5,0,1,.2,1.5.2,0-.5,0-1-.2-1.5.5,0,.9,0,1.4,0,0,.5-.2,1-.2,1.5.5,0,1,0,1.5-.2,0,.5,0,.9,0,1.4-.5,0-1-.2-1.5-.2Z"/>
    </g>
  </g>
</svg>